<svg width="24" height="24" viewBox="0 0 100 100" fill="none" xmlns="http://www.w3.org/2000/svg">
<path d="M27.8285 86.9298C27.4816 87.855 29.9959 86.9082 30.4112 86.8118C32.4526 86.3379 34.4688 85.8343 36.5336 85.4615C40.57 84.7327 44.663 84.7671 48.7392 84.5438C50.6361 84.4398 52.5054 83.8965 54.3634 83.5212C56.5225 83.085 58.7217 82.6968 60.7218 81.7513C64.2413 80.0876 66.684 77.6409 69.2565 74.7112C71.2656 72.4231 71.9217 69.4569 73.242 66.7664C74.6573 63.8824 76.5423 61.4953 77.0308 58.2711C77.4615 55.4284 77.5585 52.5278 78.0403 49.697C78.1971 48.7758 77.5716 44.2479 78.4598 43.9941C78.87 43.8769 79.2244 43.6339 79.6397 43.4828C80.6072 43.131 88.8732 40.0895 87.9516 38.5534C87.1395 37.1999 83.1192 38.0036 82.0127 38.2126C80.9713 38.4093 80.1115 38.7748 79.0629 38.7894C78.5327 38.7968 76.2044 38.911 76.2442 38.8812C77.5764 37.882 78.538 36.9059 79.6266 35.6561C80.337 34.8405 81.1492 34.581 81.6325 33.5454C81.9363 32.8942 82.4328 32.087 82.5633 31.3691C82.7899 30.1227 78.7737 32.2812 77.9092 32.6014C76.4919 33.1264 76.1859 33.4681 75.7067 31.8935C74.5963 28.2451 72.9938 24.914 71.6688 21.3529C70.5857 18.442 69.5021 13.4961 65.6119 13.5393C64.0428 13.5567 62.6029 14.0904 61.0758 14.3652C59.3211 14.6811 57.577 14.9196 55.8317 15.2961C52.8286 15.9438 50.3571 17.7759 47.7821 19.3209C47.0339 19.7698 45.982 20.318 45.3436 20.9072C44.0975 22.0574 43.8793 21.6302 42.3283 20.7499C39.8329 19.3336 37.0865 18.4368 34.4098 17.433C30.3753 15.9201 26.3664 14.3722 22.2174 13.1984C18.983 12.2835 15.8151 11.1969 12.6208 10.1569C11.9601 9.94181 11.4314 9.97125 10.7853 10.2356C8.20597 11.2908 10.4236 15.3492 11.3229 16.9348C12.8793 19.6791 15.2759 22.1129 17.4453 24.3683C18.4138 25.3751 19.4418 26.3158 20.4999 27.2263C20.7366 27.4299 21.3564 27.7898 21.4177 28.1571C21.4784 28.5217 19.45 29.445 19.1758 29.5861C17.6606 30.3662 15.8442 30.3789 14.3775 31.1855C13.5424 31.6449 15.203 33.296 15.4263 33.5454C18.8045 37.3177 24.145 38.8799 28.72 40.6773C30.539 41.3919 33.0324 42.0007 34.6064 43.26C35.9816 44.3601 30.9393 48.2187 30.3981 48.6744C27.6031 51.0281 24.5031 52.8146 21.2734 54.4953C20.9255 54.6764 17.4983 55.9068 17.6944 56.593C17.8168 57.0214 18.5733 56.7572 19.0185 56.7765C22.0863 56.9099 25.1526 56.9086 28.2218 56.9601C30.7946 57.0032 33.3009 57.1756 35.747 58.0351C36.9635 58.4625 37.7643 58.7067 36.6647 59.8705C31.9951 64.8131 26.0484 69.2244 19.438 71.0272C17.6553 71.5134 15.7939 71.683 14.0235 72.1809C13.6323 72.2909 13.3292 72.5952 13.0927 72.9151C12.6543 73.5082 13.014 74.1271 13.4074 74.6849C15.8323 78.1232 19.3769 80.8424 22.5845 83.4949C25.0517 85.5353 27.4569 87.5021 29.7164 89.7616" stroke="#1DA1F2" stroke-width="3" stroke-linecap="round"/>
<path d="M14.1415 14.7192C14.8967 16.0579 15.779 17.0334 17.3666 17.3412C17.9774 17.4597 24.0067 17.3833 24.0266 17.7608C24.0508 18.2207 23.3041 19.3154 23.1613 19.7011C22.8743 20.4765 22.5243 21.3923 22.4665 22.2313C22.4359 22.6753 27.1831 20.4476 27.6581 20.2386C29.0974 19.6053 30.3069 18.9638 28.248 20.3566C27.4338 20.9074 18.8228 27.5449 19.438 27.908C20.2906 28.4112 23.4023 27.3525 24.0921 27.2001C25.7292 26.8384 27.6305 26.1125 29.3231 26.0202C30.139 25.9756 28.7725 27.5881 28.2743 28.2358C26.6033 30.408 24.8182 32.4961 23.1875 34.6991C22.6114 35.4773 21.3688 36.2776 21.693 37.19C21.7809 37.4376 22.2262 37.3121 22.4796 37.2424C24.3279 36.7341 28.3911 34.5933 29.4673 34.0436C35.5721 30.9249 41.5953 27.6335 47.5199 24.1847C48.4688 23.6324 49.4042 23.057 50.3386 22.4804C51.5565 21.729 51.4716 21.6488 50.3124 22.6115C46.1844 26.0398 42.2264 29.6954 38.2642 33.3094C33.1302 37.9921 27.432 42.5689 22.8467 47.8223C22.5276 48.1878 21.6635 48.9962 22.1387 49.094C23.0227 49.2758 23.8671 48.5613 24.6952 48.2025C26.5535 47.3974 28.379 46.5165 30.1883 45.6067C38.6792 41.337 46.8542 36.5376 55.1238 31.8673C57.1959 30.697 62.2419 27.3076 61.9148 29.6648C61.7342 30.9671 61.0055 32.2284 60.8136 33.5716C60.7924 33.7202 60.5799 35.5176 61.1807 34.1747C62.1407 32.0287 62.6467 29.5805 62.9374 27.2656C62.941 27.2373 63.8763 21.9786 61.7051 23.031C58.2648 24.6986 54.937 29.5711 52.5804 32.2737C51.2329 33.8191 47.1628 37.6299 46.34 39.9956C46.2978 40.1169 46.5978 39.9451 46.7071 39.8776C47.4964 39.3896 49.2878 37.8981 49.7486 37.5177C52.6974 35.0841 56.3839 32.3313 57.6672 28.5373C57.7232 28.3715 57.8131 28.1406 57.6934 28.0129C57.2348 27.5237 56.5382 28.7151 56.0546 29.1797C53.2991 31.8267 50.7769 34.7672 48.5163 37.8455C47.9173 38.6612 47.3581 39.5074 46.8382 40.3757C46.4929 40.9526 45.6934 42.0015 46.2876 42.316C47.1704 42.7834 50.1176 41.1329 50.6664 40.8608C53.317 39.5466 55.761 37.8938 58.0474 36.0232C58.8414 35.3735 61.0622 33.2508 60.2368 33.86C58.8904 34.8537 57.5876 36.6901 56.5659 37.8848C53.4452 41.5342 50.3902 45.2411 47.3888 48.9891C46.6516 49.9097 45.9204 50.8351 45.1994 51.7684C44.7681 52.3269 43.5288 53.8026 44.2162 53.6432C47.3248 52.9223 51.2132 50.0158 53.7866 48.4385C57.8425 45.9524 61.8282 43.3044 65.5201 40.2971C65.9762 39.9255 66.4038 39.5202 66.8443 39.1303C67.1927 38.8218 67.2202 38.7192 66.9229 39.2876C63.6913 45.4658 60.1543 51.4149 56.5921 57.4058C56.1 58.2335 55.169 59.6235 56.5659 58.2448C59.6811 55.1705 62.5771 51.8029 65.4153 48.4778C67.2202 46.3632 68.9019 44.2103 70.5938 42.0145C71.1541 41.2872 69.8776 43.7054 69.5056 44.5448C67.609 48.8236 65.5272 53.0108 63.3307 57.1436C62.6148 58.4907 61.8741 59.8246 61.1282 61.1553C60.6592 61.9922 60.1621 62.8132 59.6861 63.6462C59.5503 63.8839 59.1967 64.1109 59.2928 64.3673C59.3743 64.5845 59.617 64.0347 59.7648 63.856C60.4129 63.0725 62.1983 60.7787 62.7015 60.1065C63.8692 58.5464 65.4032 56.7766 66.1363 54.928C66.6688 53.5852 63.3829 55.8573 62.1246 56.5668C55.7448 60.1637 49.4466 63.907 43.1411 67.6317C41.4711 68.6182 39.8237 69.6438 38.1331 70.5946C36.5058 71.5098 35.5544 72.105 37.058 70.4635C39.7898 67.4815 42.7079 64.7136 45.2912 61.5879C46.8933 59.6495 51.2251 54.8183 46.7333 53.3941C44.3776 52.6472 41.7425 52.7595 39.313 52.8697C38.4418 52.9092 37.5728 52.9897 36.7041 53.0663C35.9318 53.1345 33.9076 53.8356 34.3836 53.2237C35.0208 52.4044 36.2558 52.3219 37.1498 51.7947C38.3658 51.0776 41.3787 49.4583 41.6466 47.7567C41.8656 46.3652 38.8815 48.4729 37.6742 49.1989C37.1297 49.5263 34.1075 51.0005 33.9641 52.0044C33.8049 53.1184 36.2652 52.5682 37.3334 52.2142C40.0509 51.3136 42.6352 49.5288 44.4784 47.3372C46.3967 45.0562 43.6278 46.1865 42.8003 46.6031C40.6553 47.6827 38.5814 49.0388 36.6647 50.4837C33.3553 52.9784 39.0641 49.5334 39.2605 49.3824C43.551 46.0849 47.8617 42.192 50.9548 37.7144C52.94 34.8406 52.992 33.2348 49.67 32.3261C45.5739 31.2057 41.253 30.8107 37.058 30.2416C36.2368 30.1302 35.4133 30.0348 34.5933 29.9139C33.3738 29.7339 33.8127 29.7425 34.8949 29.7041C39.1003 29.555 43.3129 29.5887 47.5199 29.5337C49.067 29.5134 50.6141 29.492 52.1609 29.455C53.5364 29.4221 55.1631 29.9604 56.2775 29.1535C57.0211 28.615 54.6268 28.3285 53.7472 28.0653C48.7891 26.582 43.7449 25.3491 38.7099 24.1585C38.0597 24.0048 33.5458 22.5361 36.4812 24.3158C39.7807 26.3163 43.1564 28.1767 46.4187 30.2416C49.3999 32.1286 52.3437 34.1103 55.2025 36.1805C55.8601 36.6567 53.7262 35.5025 52.9737 35.1972C51.9243 34.7715 51.226 34.8003 51.8069 33.5978C52.8656 31.4066 54.0067 29.3893 54.6781 27.0165C55.2592 24.9626 55.6359 22.7083 55.2549 20.5795C54.9894 19.0958 54.466 19.5784 54.2585 20.8023C53.9773 22.4618 53.7187 25.0607 55.0583 26.4003C56.5414 27.8835 58.5043 25.7284 59.319 24.7091C60.7095 22.9696 61.7522 20.8628 62.5572 18.7965C62.9741 17.7264 62.7666 18.5905 62.7539 19.2815C62.6036 27.4326 61.5811 35.5858 61.9148 43.745C61.949 44.5796 61.7629 46.5916 62.4917 46.1835C63.6231 45.5499 64.6368 41.4603 64.9957 40.52C65.8592 38.2574 66.6819 35.9818 67.4998 33.7027C67.6517 33.2792 68.1179 32.0744 68.1553 32.5228C68.3007 34.2684 68.1642 36.1028 68.129 37.8455C68.0996 39.3088 67.4823 42.3489 68.0766 43.7975C68.1199 43.9029 68.3374 43.8523 68.4175 43.7713C68.771 43.4137 70.4208 40.7554 70.4364 40.7297C71.7488 38.5786 72.8484 36.2678 74.2515 34.1747C76.2633 31.1735 75.5549 41.7137 76.9784 39.1041C77.2341 38.6353 78.614 34.8094 78.5909 34.817C78.0179 35.0081 77.1102 36.4178 76.8342 36.7705C75.3056 38.7236 73.8416 40.7347 72.3767 42.7356C71.3895 44.0839 70.5557 45.2053 69.676 46.6031C69.4045 47.0346 68.2617 48.6364 68.3388 49.33C68.4449 50.2849 70.2704 49.096 71.1575 48.7269C73.5747 47.7211 75.7395 46.3703 77.8043 44.7676C78.7822 44.0086 79.9752 43.0963 80.7672 42.1063C81.0566 41.7445 79.8316 42.0274 79.3775 42.1194C75.9333 42.817 71.1499 43.6432 68.4175 46.0786C67.9261 46.5166 69.6683 45.6448 70.2398 45.3183C70.6621 45.0769 71.0775 44.8231 71.4852 44.5579C71.9571 44.2509 73.0867 43.0514 72.8487 43.5615C72.7428 43.7883 72.4992 43.9199 72.3243 44.099C70.2298 46.2434 69.6371 46.8033 67.3031 49.5135C62.542 55.0421 58.0143 60.8225 53.8914 66.8451C50.4496 71.8729 54.2124 68.098 55.6351 66.8189C58.9036 63.88 62.2142 60.96 65.3497 57.8778C65.7357 57.4984 66.1725 57.1488 66.451 56.6847C67.0482 55.6893 64.4454 57.8568 63.475 58.4939C57.966 62.1105 52.3657 65.5797 46.812 69.1263C43.7681 71.0701 41.656 72.4295 38.8148 74.3965C38.4627 74.6403 38.1178 74.8947 37.7791 75.1569C37.2405 75.5739 38.9149 74.4046 39.4834 74.0294C42.5396 72.0128 45.6526 70.0786 48.595 67.8939C49.0354 67.5668 54.4341 63.9794 54.3372 62.7678C54.3192 62.5428 53.8787 62.828 53.6817 62.9383C52.1344 63.804 48.4927 66.4547 47.4937 67.186C43.7048 69.9596 39.9506 73.6832 35.7864 75.9042C34.2714 76.7122 35.8001 72.9624 35.8257 72.8233C36.1327 71.1559 36.3054 70.0503 34.1607 70.2144C28.0391 70.6829 21.7975 72.9443 15.977 74.7898C14.3553 75.304 18.9414 73.1134 20.3557 72.1678C21.1135 71.6612 21.8544 71.1296 22.6107 70.6208C23.1785 70.2388 23.9791 69.1272 24.4199 69.6507C24.6757 69.9545 24.2643 71.9042 24.433 72.3776C25.054 74.1204 26.929 74.4086 28.5365 74.5801C28.6137 74.5883 32.4615 74.2261 32.0762 75.2225C31.2681 77.3124 29.0349 78.9979 27.8023 80.8467C26.9544 82.1186 27.6721 81.6598 28.5102 81.1351C31.1193 79.5019 33.6047 77.6531 36.1928 75.9829C36.6976 75.6571 39.423 73.332 38.5264 75.6027C37.7171 77.6523 36.1458 79.859 36.0617 82.1315C35.9669 84.6902 40.9427 80.3475 42.9838 78.8015C47.8161 75.1415 52.33 70.901 57.3525 67.5006C59.5692 65.9999 57.9236 69.8207 57.772 70.5159C57.3542 72.4333 55.9229 75.8281 56.4873 77.8314C56.545 78.0362 56.915 78.1619 57.0903 78.0411C58.1837 77.2879 61.5602 72.7686 61.7575 72.5087C62.9857 70.8908 64.1735 69.2426 65.3759 67.6055C66.4459 66.1486 67.4543 64.6451 68.5748 63.2267C69.1 62.5618 69.518 61.678 70.3053 61.3651C70.8546 61.1467 69.4487 68.955 69.4138 69.1525C69.2861 69.877 69.1619 70.6021 69.0468 71.3288C68.9254 72.095 69.0484 72.1494 69.073 70.6732C69.1758 64.5011 64.3229 60.0881 58.48 58.7955C56.894 58.4446 57.6688 59.3438 58.3489 59.7656C59.6757 60.5885 61.2486 61.1407 62.7801 61.4175C63.0885 61.4732 64.6613 61.5498 62.6752 61.2602C58.4927 60.6502 54.2053 60.4592 49.9846 60.3949C49.195 60.3829 45.0281 60.0558 43.9015 60.8538C43.28 61.294 45.2951 61.539 46.0516 61.6273C49.0294 61.9748 52.111 61.9726 55.0845 61.5879C57.1123 61.3256 58.7941 60.8738 56.3037 59.3461C53.7605 57.7861 50.8822 56.6621 48.1361 55.5179C47.484 55.2463 45.8716 54.5805 46.4711 54.2069C49.3743 52.398 53.8699 51.5817 56.9461 50.4574C59.0186 49.7 61.1066 48.9722 63.121 48.0714C64.5443 47.4349 69.4769 45.1659 70.62 43.1944C72.0474 40.7325 65.4686 40.2178 62.6228 40.2053C55.9335 40.1758 49.2308 40.8358 42.5643 41.3066C41.463 41.3843 40.3619 41.4657 39.2605 41.5425C38.0183 41.6292 37.6113 41.7808 38.5788 41.3983C41.8961 40.0869 45.1713 38.6982 48.3328 37.0327C51.3881 35.423 56.6162 33.1403 58.3751 29.809C59.7362 27.2311 54.7008 28.1853 54.1537 28.3013C50.3224 29.114 39.9277 34.7821 43.6524 33.5716C44.5349 33.2848 50.3838 29.1483 49.2374 28.7208C47.4964 28.0717 44.8425 28.4801 43.0887 28.616C40.1356 28.8447 37.2012 29.3164 34.2787 29.7828C33.5614 29.8972 32.8342 29.9642 32.1286 30.1367C31.4976 30.291 30.7809 30.4971 31.6567 31.1069C34.9831 33.4232 39.4841 34.8066 43.1411 36.364C47.381 38.1697 51.6643 39.9087 55.6744 42.1981C56.0251 42.3983 57.6753 43.4188 55.7531 42.3554C53.2137 40.9506 50.6269 39.638 48.0706 38.265C45.645 36.9622 42.7433 35.6789 40.7682 33.6765C39.4819 32.3723 41.4867 32.3075 42.4332 32.2344C46.9201 31.8874 51.4687 32.0741 55.9628 32.0377C58.7354 32.0152 66.617 32.0937 64.1829 30.766C63.0357 30.1403 64.2193 27.235 64.5893 26.4659C64.9923 25.6284 66.0116 23.9089 67.2376 24.1716C69.0203 24.5537 69.8194 28.2941 70.148 29.4812C71.2088 33.3137 71.9572 37.4437 71.9572 41.4377C71.9572 41.8785 71.9458 42.3214 71.9703 42.7618C72.0335 43.8988 74.4471 43.1052 74.8677 43.0371C79.5609 42.2772 82.5973 42.0182 83.953 40.7822C84.606 40.1868 85.2655 39.5029 83.8612 39.8382C80.7273 40.5866 77.2754 42.0342 74.5268 43.7188C73.1662 44.5527 77.6192 42.8225 79.0105 42.0407C83.1443 39.7179 69.5927 44.5836 64.904 43.8761C62.4075 43.4995 64.0205 38.9171 64.196 37.8324C64.6938 34.7551 65.3101 31.6061 65.4808 28.4849C65.6528 25.3401 60.2438 24.3758 58.1129 23.8177C51.1286 21.9882 43.9727 20.863 36.809 20.0288C35.1262 19.8329 28.4631 18.5629 26.098 19.4389C25.5259 19.6508 26.9425 20.3464 27.4745 20.645C29.5786 21.8258 31.7864 22.8089 33.8854 24.0012C34.3098 24.2423 40.0654 27.4099 36.7696 27.3049C36.5585 27.2982 34.0938 26.8811 33.9772 27.1476C33.9159 27.2878 34.1374 27.4139 34.2525 27.5147C34.8455 28.0343 36.6252 29.2469 37.1105 29.5599C38.1417 30.225 39.749 31.1836 40.8862 31.7624C41.0439 31.8427 41.4771 32.0967 41.3844 31.9459C40.9194 31.1903 39.9312 30.9264 39.1819 30.4514C37.0269 29.0853 36.2511 28.5501 33.8067 29.4812C31.3759 30.4073 29.3444 33.9569 31.342 36.3772C32.0887 37.2818 33.5719 37.5017 34.6458 37.6882C35.3124 37.8039 35.88 37.845 35.1177 37.2293C33.7179 36.0987 29.2914 33.1077 30.4899 34.45C33.0704 37.3401 37.4877 38.632 40.8469 40.3233C42.3993 41.1049 43.2972 41.5594 43.718 43.3255C44.3817 46.1112 44.5468 49.1181 44.6226 51.9651C44.7108 55.2783 44.4856 58.6052 44.6881 61.9157C44.7831 63.4688 44.9073 64.7002 46.0516 65.7832C48.9388 68.5157 52.3743 73.0181 50.2206 77.1759C49.9452 77.7076 47.9577 81.2515 49.5389 79.1686C51.8066 76.1813 54.4051 73.4419 56.5397 70.3586C58.2585 67.8758 59.9778 65.4011 61.7444 62.9514C63.1339 61.0246 64.4631 58.6971 66.1101 56.9601C66.8864 56.1413 67.5286 56.6738 68.4699 56.711C70.2086 56.7796 71.0633 55.3827 71.9834 54.102C73.0646 52.5974 74.252 50.9635 75.2085 49.3693C75.7326 48.4958 73.931 50.9649 73.1896 51.6636C72.4945 52.3186 71.6848 52.7488 71.0133 53.4203" stroke="#1DA1F2" stroke-width="3" stroke-linecap="round"/>
<path d="M58.9782 19.9108C59.6533 19.8546 61.431 19.4268 61.7182 18.7702C61.9748 18.1837 60.4574 18.5023 59.8172 18.4949C58.8908 18.4843 56.1114 18.4949 57.0379 18.4949C59.0475 18.4949 61.0744 18.4125 63.0816 18.508C64.2764 18.5649 64.0636 21.6565 64.1173 22.4018C64.2776 24.6229 64.2537 26.8324 64.0387 29.0486C63.984 29.6118 63.8641 30.5508 63.7371 31.1855C63.7046 31.3484 63.7314 30.8524 63.7503 30.6874C63.8514 29.802 65.2336 20.5405 65.6643 20.6188C65.9949 20.6789 64.9876 24.8629 66.1887 24.7485C66.6546 24.7041 67.2282 23.6819 66.7656 23.4506" stroke="#1DA1F2" stroke-width="3" stroke-linecap="round"/>
</svg>
