<svg width="24" height="24" viewBox="0 0 100 100 " fill="none" xmlns="http://www.w3.org/2000/svg">

<path d="M2.81439 57.196C4.55727 57.03 6.11196 55.9046 7.91423 55.6753C10.3127 55.37 12.7655 55.7583 15.151 56.003C18.5817 56.3549 22.0385 56.755 25.4818 56.9338C32.4276 57.2947 39.2735 58.2128 46.2351 57.668C49.0412 57.4484 51.8218 56.9739 54.6256 56.7241C58.3446 56.3927 62.0737 56.6336 65.7954 56.4356C67.6675 56.3361 69.4879 55.8808 71.3672 55.8064C72.9935 55.742 74.6036 55.9135 76.1918 55.5442C79.5188 54.7704 83.3099 55.4255 86.7192 55.282C90.3826 55.1277 94.0757 54.5475 97.6793 53.8923" stroke="white" stroke-width="3" stroke-linecap="round"/>
<path d="M19.8051 55.5442C18.74 51.5968 19.0943 47.0754 19.1627 43.0502C19.2804 36.1265 19.923 29.1923 21.457 22.428C22.6428 17.199 25.6847 11.8778 30.0572 8.63612C32.1274 7.10133 34.4634 6.27938 36.8483 5.3717C39.5046 4.3607 42.0923 3.42402 44.8979 2.92011C47.0075 2.5412 49.0646 2.44814 51.2039 2.44814C53.6794 2.44814 55.9868 2.39347 57.8507 4.25734C60.5794 6.98606 62.7194 10.42 65.1137 13.4344C67.5764 16.535 70.0138 19.6519 72.4554 22.7688C75.9409 27.2184 79.1597 31.7283 81.8554 36.7049C83.8345 40.3588 85.6811 44.876 86.221 49.0415C86.2745 49.4537 86.3521 53.1683 86.3521 52.2404" stroke="white" stroke-width="3" stroke-linecap="round"/>
<path d="M38.6837 60.4998C37.5177 62.2345 36.3205 63.9468 35.1309 65.6652C34.1134 67.1349 33.9972 68.6353 33.7412 70.3848C33.0905 74.831 34.384 80.5151 37.1105 84.1505C39.1978 86.9336 42.3641 88.6415 45.3436 90.286C49.1843 92.4057 52.3385 93.572 56.7232 93.9831C60.3093 94.3193 64.3207 94.8436 67.8931 94.0748C70.4755 93.5191 73.6307 92.7209 75.864 91.2693C77.6607 90.1014 79.2813 87.0441 78.9842 84.8322C78.8053 83.4998 78.2664 82.2649 77.7257 81.0434C75.3162 75.5997 71.7021 70.9022 67.6571 66.5698C62.2515 60.7801 55.5752 56.7241 47.5461 56.7241C45.9061 56.7241 45.3261 56.5904 44.4522 58.0351C44.0239 58.743 43.8753 59.2237 43.8753 60.0278" stroke="white" stroke-width="3" stroke-linecap="round"/>
</svg>
