<svg width="24" height="24" viewBox="0 0 100 100 " fill="none" xmlns="http://www.w3.org/2000/svg">

<path d="M31.8402 87.8737C35.4647 85.8838 39.5664 85.3236 43.6393 84.8846C50.6159 84.1328 57.7131 83.9836 64.7204 84.3078C71.2784 84.6112 77.84 85.5139 84.4118 85.5139C84.7541 85.5139 87.072 85.7446 87.2961 85.2779C87.5082 84.8359 86.8899 83.0943 86.8241 82.7083C86.185 78.9604 85.7935 75.1729 85.2771 71.4074C84.7332 67.4415 84.5654 61.6504 81.1605 58.8741C78.1892 56.4513 73.2969 56.5758 69.7154 56.4356C65.6569 56.2768 61.3359 56.1229 57.4967 57.6811C53.8237 59.1719 51.7762 62.4051 49.7486 65.639C47.5793 69.0989 45.1662 72.8104 43.7966 76.6908C43.0183 78.896 41.9658 83.3176 43.6655 85.3173C43.8341 85.5156 44.5445 86.7212 44.8455 86.7463C45.6738 86.8153 46.7049 85.2505 47.1791 84.806" stroke="white" stroke-width="3" stroke-linecap="round"/>
<path d="M71.7212 11.1795C69.2975 12.4311 66.4413 13.7071 64.432 15.6107C60.3733 19.4558 56.9524 26.5473 57.6278 32.1819C58.7137 41.2407 66.3535 52.8537 76.6113 52.306C82.1736 52.0089 86.9728 47.542 88.2662 42.3029C89.3615 37.8661 88.9895 32.9233 88.1351 28.4849C87.1388 23.3096 85.0436 17.8819 80.4394 14.9028C77.8544 13.2301 75.0783 13.2067 72.1145 13.3164C71.214 13.3498 71.2492 13.4841 71.2492 14.2473" stroke="white" stroke-width="3" stroke-linecap="round"/>
<path d="M49.3029 62.3876C41.3225 58.3126 33.2579 49.6776 23.3711 52.1617C22.0041 52.5052 21.0834 53.4567 20.146 54.4429C17.84 56.869 16.0432 59.5433 14.7184 62.6236C12.5524 67.6596 11.3896 73.2168 10.8509 78.6573C10.6476 80.7107 9.73913 81.8218 12.2275 82.1577C16.8101 82.7764 21.5246 82.6821 26.1373 82.6821C30.9004 82.6821 35.6056 82.3582 40.3356 81.7906C42.6175 81.5168 42.1876 81.2604 41.5155 79.3784" stroke="white" stroke-width="3" stroke-linecap="round"/>
<path d="M28.0645 15.6631C26.9081 15.0849 25.5595 14.6478 24.2626 14.5619C22.2067 14.4257 19.8366 16.5224 18.1401 17.433C14.4996 19.3871 9.18734 21.9626 8.84505 26.6494C8.63702 29.4979 9.49745 32.0403 10.6542 34.6204C12.9695 39.7844 15.7625 45.4192 21.5488 47.2717C29.9444 49.9596 40.5904 44.6339 45.0552 37.4522C47.2217 33.9675 49.0918 30.1456 50.6664 26.361C51.9013 23.3929 52.901 20.1393 51.6627 17.0004C49.4175 11.3091 43.5712 9.66769 37.9495 9.58005C33.2312 9.50649 28.6141 10.1854 24.079 11.4679C23.5095 11.6289 17.6813 12.9088 17.6813 14.1293C17.6813 14.5943 17.8655 14.9219 18.1664 15.283C19.1504 16.4639 20.2459 17.5469 21.221 18.7309" stroke="white" stroke-width="3" stroke-linecap="round"/>
</svg>
