<svg width="24" height="24" viewBox="0 0 100 100" fill="none" xmlns="http://www.w3.org/2000/svg">
<g clip-path="url(#clip0_0_1)">

<path d="M52.3707 2.68413C50.9449 4.10986 49.8564 5.80515 48.4901 7.27267C46.2296 9.70058 44.1143 11.7368 41.3713 13.5655C38.236 15.6557 35.3505 17.7526 31.814 19.216C27.6496 20.9392 23.9388 23.2937 19.91 25.286C15.6522 27.3915 11.989 30.1485 7.95355 32.6014C6.55349 33.4525 5.09252 34.5248 4.0074 35.8134C3.56481 36.339 3.29689 37.1291 2.76194 37.5571C2.64473 37.6508 2.00339 37.8668 2.76194 37.8062C4.90253 37.6349 7.01478 36.8999 9.15968 36.7049C18.6615 35.8411 28.5699 37.2359 38.0282 37.9635C43.0158 38.3471 47.9528 39.2374 52.9475 39.4974C60.6611 39.8989 68.4059 39.7333 76.1262 39.7333C80.1554 39.7333 84.1846 39.7333 88.2138 39.7333C90.2074 39.7333 92.0244 39.7927 93.956 39.3663C94.6967 39.2027 95.3987 38.9292 96.1323 38.7894C96.8864 38.6458 98.3324 38.5767 97.6006 37.6619C95.9288 35.5721 93.7951 34.0622 91.5437 32.6539C85.8117 29.0682 79.8439 25.8032 74.3957 21.7856C71.888 19.9364 69.7945 17.765 67.7357 15.4534C65.2411 12.6524 62.2414 10.3222 59.3453 7.9544C58.3491 7.13998 56.8808 6.46299 56.0284 5.51591C55.6896 5.13948 55.6248 4.75994 55.3073 4.34911C54.706 3.57094 53.4418 3.17447 53.0786 2.44814" stroke="white" stroke-width="3" stroke-linecap="round"/>
<path d="M2.10644 38.3175C2.27688 41.7263 3.67209 45.1911 4.23028 48.5696C4.83886 52.2531 5.35423 55.9418 5.12177 59.687C4.89576 63.3282 3.93286 66.8589 3.70587 70.5159C3.5046 73.7587 3.78321 77.1643 2.89305 80.3223C1.64503 84.7498 1.86334 89.4094 2.39486 93.9568C2.51931 95.0216 2.90353 95.6037 3.9943 95.6612C13.7311 96.1736 23.4603 95.1317 33.2037 95.7923C37.3402 96.0727 41.515 95.8689 45.6583 95.8971C50.074 95.9273 54.488 96.2411 58.8995 96.4215C65.0323 96.6723 71.1353 97.077 77.2799 97.077C81.1709 97.077 85.094 96.9274 88.9741 97.2344C91.2647 97.4156 93.5999 98.021 95.8963 98.021C97.2817 98.021 97.2453 97.7122 97.1549 96.3953C96.7269 90.1664 95.4916 84.3548 93.9036 78.3296C93.2025 75.6696 93.0993 72.7687 92.8285 70.044C92.4704 66.4403 92.5586 62.9957 92.9072 59.3985C93.3897 54.4193 93.7645 49.3869 94.3755 44.4268C94.4894 43.5023 94.6121 42.4495 94.9524 41.5688C95.2 40.9279 95.433 40.6534 94.8475 41.3852" stroke="white" stroke-width="3" stroke-linecap="round"/>
<path d="M44.8192 48.7007C43.3723 49.6215 42.1429 50.9559 40.9518 52.1617C38.6065 54.5359 36.251 56.9086 35.1309 60.1196C33.8897 63.6775 34.5355 65.7228 38.1593 67.0549C43.9849 69.1963 50.5845 68.3049 56.1202 65.7963C59.8367 64.112 64.2179 61.7442 66.1887 57.9564C66.7596 56.8593 67.0032 55.3238 66.2936 54.22C65.4015 52.8323 62.7077 52.796 61.3642 52.7124C57.1683 52.451 53.1567 52.9992 49.0014 53.145C47.6573 53.1922 46.5815 52.6797 45.3436 52.2928C44.679 52.0851 43.8308 52.3658 43.1674 52.4764" stroke="white" stroke-width="3" stroke-linecap="round"/>
</g>
<defs>
<clipPath id="clip0_0_1">
<rect width="100" height="100" fill="white"/>
</clipPath>
</defs>
</svg>
