<svg width="24" height="24" viewBox="0 0 100 100" fill="none" xmlns="http://www.w3.org/2000/svg">
<path d="M2.34242 6.22386C6.91175 6.22386 11.3997 5.14926 15.9638 5.05705C25.7019 4.86033 35.4501 5.38185 45.1863 5.5028C56.2888 5.64072 67.3586 5.37745 78.4467 6.10586C83.0742 6.40986 87.729 6.9318 92.3697 6.9318C93.1443 6.9318 95.1758 6.7332 95.7914 7.16778C96.2571 7.49653 96.0247 9.31521 96.0274 9.73737C96.0359 11.0876 96.0274 12.4381 96.0274 13.7884C96.0274 20.3391 96.0274 26.8898 96.0274 33.4405C96.0274 51.4625 96.0274 69.4846 96.0274 87.5066C96.0274 89.613 96.0274 91.7194 96.0274 93.8257C96.0274 94.3805 95.9019 95.1039 96.0536 95.6349C96.1851 96.095 96.6068 95.4439 95.2932 95.4252C81.1569 95.2232 67.0069 95.4252 52.8689 95.4252C37.4583 95.4252 19.0137 95.4252 5.17421 95.4252" stroke="white" stroke-width="3" stroke-linecap="round"/>
<path d="M4.70224 10.2356V93.7733" stroke="white" stroke-width="3" stroke-linecap="round"/>
<path d="M3.52234 8.58368C4.77937 8.9265 6.24573 10.7635 7.21939 11.6252C9.75953 13.8734 12.069 16.3596 14.5873 18.626C19.4053 22.9622 24.7815 26.1357 30.2932 29.455C35.4505 32.5609 40.4727 35.9316 45.4616 39.3007C46.773 40.1863 49.8194 43.105 51.6234 42.4865C53.4443 41.8622 55.1409 39.8058 56.4741 38.5665C60.3101 35.0011 64.0471 31.4183 68.4699 28.5635C74.1393 24.9042 80.262 22.0967 86.3259 19.1767C88.7997 17.9854 91.1258 16.8829 93.1432 15.0208C94.1509 14.0905 95.2762 13.0478 95.5554 11.6514" stroke="white" stroke-width="3" stroke-linecap="round"/>
</svg>
