<svg width="24" height="24" viewBox="0 0 100 100" fill="none" xmlns="http://www.w3.org/2000/svg">
<path d="M47.651 6.93181C43.9942 6.07855 40.1832 4.87779 36.3763 5.5028C32.3818 6.15862 29.1863 8.69515 26.2553 11.3106C19.1086 17.6879 13.4559 25.222 11.0475 34.5811C8.7003 43.7026 6.64846 55.8264 13.0403 63.7249C16.4376 67.9229 20.5591 71.8615 24.6034 75.4191C30.7864 80.858 37.7747 85.8406 45.868 87.9131C52.4793 89.606 59.8252 89.6135 66.5558 88.739C72.4738 87.9701 79.3252 86.569 83.0877 81.4104C86.1636 77.1933 86.3515 71.1894 86.5094 66.2158C86.7246 59.4428 86.07 52.5685 84.9362 45.8951C84.1707 41.3892 83.1486 36.9593 81.1998 32.7981C76.8073 23.4186 69.1067 16.8618 60.4465 11.4679C55.3866 8.31643 49.63 5.18366 43.8229 3.54939C41.7415 2.96366 41.9874 3.98631 41.9874 5.51591" stroke="white" stroke-width="3" stroke-linecap="round"/>
<path d="M26.4126 47.7567C26.3983 47.9859 26.1946 48.2287 26.4126 48.2287" stroke="white" stroke-width="3" stroke-linecap="round"/>
<path d="M44.3473 41.8572V42.5651" stroke="white" stroke-width="3" stroke-linecap="round"/>
<path d="M62.2819 47.2848C62.5202 47.7215 61.9846 46.3347 61.81 45.8689" stroke="white" stroke-width="3" stroke-linecap="round"/>
</svg>
