<svg width="24" height="24" viewBox="0 0 100 100 " fill="none" xmlns="http://www.w3.org/2000/svg">
<g clip-path="url(#clip0_0_1)">
<path d="M0.218582 96.3691C0.764355 94.7318 2.73243 93.4416 3.81076 92.1476C6.75917 88.6095 9.10034 84.5637 11.7293 80.7943C13.9459 77.616 16.5654 74.6563 18.5203 71.3025C20.5948 67.7437 22.5782 64.4373 25.1147 61.1815C28.124 57.3189 31.5838 54.0293 35.0915 50.6279C37.0152 48.7625 38.7988 46.8934 41.0435 45.3969" stroke="white" stroke-width="3" stroke-linecap="round"/>
<path d="M60.63 1.26823C57.8655 3.3948 56.0495 6.12717 54.2061 9.05565C50.8755 14.3468 46.8804 19.5639 44.6488 25.4433C43.0512 29.6524 42.1409 35.3662 43.4164 39.7727C44.2039 42.4929 46.3757 44.6805 48.3852 46.5506C52.3311 50.2228 57.3366 53.3957 62.6228 54.6789C68.6654 56.1458 75.4715 55.6926 81.4227 54.1152C84.771 53.2277 89.8356 51.2795 91.4388 47.8354C92.8116 44.8864 91.7681 41.0307 92.2648 37.8848C93.0552 32.8786 96.3126 28.5757 97.2597 23.5817C98.1506 18.8843 92.9757 14.2484 90.2589 11.1533C87.1809 7.64668 84.8158 4.16607 80.2952 2.34326C77.1359 1.06935 73.668 1.06101 70.3315 1.21579C67.6908 1.3383 65.0439 1.50421 62.3999 1.50421C61.6727 1.50421 61.0599 1.33136 60.63 1.97618" stroke="white" stroke-width="3" stroke-linecap="round"/>
<path d="M41.5155 45.3969C42.2671 44.0369 43.1256 42.7483 43.8753 41.3852" stroke="white" stroke-width="3" stroke-linecap="round"/>
</g>
<defs>
<clipPath id="clip0_0_1">
<rect width="100" height="100" fill="white"/>
</clipPath>
</defs>
</svg>
