<svg width="24" height="24" viewBox="0 0 100 100" fill="none" xmlns="http://www.w3.org/2000/svg">
<path d="M31.6042 92.3574C38.5542 82.1657 45.1993 72.5619 51.8987 62.2565C54.994 57.4952 57.6155 52.4734 60.6825 47.7174C62.0733 45.5606 64.3301 43.9242 66.0052 41.9883C67.2074 40.5989 68.2037 39.0664 69.3483 37.6357C70.2191 36.5472 71.3914 35.8405 72.4554 34.9613C75.0698 32.8008 77.2506 29.3903 80.3215 27.8818C82.4567 26.8329 83.3112 28.7041 84.2021 30.5563C85.0254 32.268 85.2587 34.3804 85.0936 36.2592C84.8776 38.7154 82.9745 40.2072 81.1867 41.6736C79.8062 42.806 78.3716 43.9607 76.8473 44.8987C76.3587 45.1994 78.7905 47.6334 78.8794 47.7305C80.4424 49.4388 82.0545 51.222 83.9005 52.6337C84.8394 53.3517 83.7381 54.0369 83.1008 54.6789C80.4532 57.3458 77.6216 59.5133 74.2777 61.2733C64.1175 66.6207 76.3606 60.0766 70.1218 63.148C69.2947 63.5552 71.6686 64.1556 72.4816 64.5901C74.0431 65.4248 81.1381 68.5664 78.2238 71.5647C75.5466 74.3192 72.0522 74.4423 68.5748 74.7636C67.0764 74.902 65.5998 75.2111 64.1042 75.3536C63.7025 75.3918 63.2659 75.3707 62.9112 75.6026C62.678 75.7551 62.7797 76.0692 62.6883 76.2975C61.827 78.4508 60.1664 80.4935 58.6635 82.2102C56.2432 84.9749 53.5115 87.1227 50.5353 89.1847C47.822 91.0646 45.4756 93.3313 42.1448 93.9044C40.6623 94.1594 39.0519 94.0093 37.5562 94.0093C36.563 94.0093 35.6722 94.2453 34.672 94.2453" stroke="white" stroke-width="3" stroke-linecap="round"/>
<path d="M16.9733 30.2941C16.6771 30.5656 15.716 31.2538 16.0949 31.12C16.9898 30.8042 17.8048 30.2542 18.7039 29.927C20.661 29.2145 22.7021 28.8637 24.7345 28.4455C30.0389 27.3542 35.4842 26.3147 40.624 24.578C41.7663 24.1921 44.5062 23.1885 41.9874 22.9786" stroke="white" stroke-width="3" stroke-linecap="round"/>
<path d="M30.6603 14.2473C30.6603 21.2042 30.6962 28.1621 30.6079 35.1186C30.5719 37.9474 30.5514 40.7869 30.4243 43.6139C30.3716 44.7859 30.4664 44.0358 30.1883 44.453" stroke="white" stroke-width="3" stroke-linecap="round"/>
</svg>
